<svg width="44" height="44" viewBox="0 0 44 44" fill="none" xmlns="http://www.w3.org/2000/svg">
<g clip-path="url(#clip0_801_9519)">
<path d="M0.254827 18.6437L0.250967 18.663L0.247107 18.6901C0.239386 18.7287 0.235526 18.7673 0.231665 18.802V18.8059V18.8097C0.231665 18.8174 0.231665 18.8252 0.227805 18.8329C0.223945 18.856 0.220085 18.8792 0.220085 18.9024L0.212364 18.9603V18.9718L0.208504 18.9911V18.9989V19.0066V19.0104L0.200783 19.0297V19.0452V19.049L0.196923 19.0568C0.189202 19.1301 0.177621 19.2034 0.1699 19.2768C0.16218 19.3424 0.154459 19.408 0.146738 19.4736C0.142878 19.5007 0.142878 19.5238 0.139018 19.547V19.5508V19.5547C0.131297 19.6358 0.119716 19.713 0.111995 19.794C0.104275 19.8519 0.100414 19.9137 0.0965541 19.9754V19.9832L0.0888334 20.0411C0.0849731 20.0642 0.0849731 20.0874 0.0811128 20.1105C0.0772524 20.1337 0.0772524 20.1607 0.0733921 20.1839C0.0733921 20.1955 0.0695318 20.2109 0.0695318 20.2225C0.0695318 20.2418 0.0656715 20.2611 0.0656715 20.2804C0.0656715 20.3035 0.0618111 20.3267 0.0618111 20.3537C0.0618111 20.3653 0.0618111 20.3769 0.0579508 20.3885C0.0502302 20.4695 0.0463698 20.5544 0.0386492 20.6548V20.6587C0.0347889 20.7011 0.0347889 20.7436 0.0309285 20.7822C0.0270682 20.8246 0.0270682 20.871 0.0232079 20.9134V20.9173V20.9211V20.9289V20.9327C0.0232079 20.9366 0.0232079 20.9404 0.0232079 20.9482C0.0232079 20.9597 0.0232079 20.9675 0.0232079 20.979V20.9906V21.0061C0.0193476 21.0562 0.0193476 21.1026 0.0154872 21.1527C0.0154872 21.172 0.0154872 21.1952 0.0116269 21.2145C0.00776658 21.3033 0.00390625 21.3882 0.00390625 21.4731C0.00390625 21.4847 0.00390625 21.5001 0.00390625 21.5156V21.5465C0.00390625 21.6159 0.00390625 21.6854 0.00390625 21.7588V21.7974V21.8167V21.89C0.00390625 21.9132 0.00390625 21.9325 0.00390625 21.9556C0.00390625 21.9711 0.00390625 21.9865 0.00390625 22.0019C0.00390625 22.0174 0.00390625 22.0328 0.00390625 22.0483C0.00390625 22.0676 0.00390625 22.0907 0.00390625 22.11V22.1795V22.2374C0.0656715 26.4216 1.74105 30.3472 4.72508 33.2847C7.70912 36.2298 11.6621 37.851 15.8544 37.851C16.5222 37.851 17.1824 37.8086 17.8348 37.7275C18.132 37.6889 18.4254 37.6503 18.7188 37.5963C16.5493 36.2839 14.6731 34.5276 13.1985 32.4162C12.6658 31.6519 12.191 30.849 11.7856 30.023C11.693 29.8377 11.608 29.6486 11.5231 29.4594C11.5154 29.4401 11.5038 29.417 11.4961 29.3977C10.4692 27.0855 9.93266 24.5804 9.93266 22.0019C9.93266 18.2539 11.0637 14.6525 13.2024 11.5877C13.6926 10.8852 14.2292 10.2212 14.8083 9.59979C16.6844 7.57716 18.9851 6.01 21.5793 5.0064C22.3668 4.70147 23.1659 4.45443 23.9843 4.26143C25.3431 3.94105 26.7405 3.78279 28.1573 3.78279C31.4694 3.78279 34.6503 4.66287 37.4298 6.31108L37.4259 6.30722C37.4027 6.28406 37.3719 6.25704 37.3487 6.23002C37.314 6.19528 37.2792 6.1644 37.2445 6.12966C37.2329 6.11808 37.2213 6.11036 37.2136 6.09878L37.2059 6.09106L37.202 6.0872L37.1981 6.07948C37.1673 6.05246 37.1325 6.02158 37.1016 5.9907C37.0669 5.95982 37.036 5.92894 37.0013 5.8942L36.9974 5.89034L36.9935 5.88648L36.9858 5.87876C36.9781 5.8749 36.9742 5.86718 36.9665 5.86332C36.9279 5.82858 36.8893 5.78998 36.8507 5.75524L36.843 5.74752L36.7928 5.7012C36.7851 5.69348 36.7774 5.68576 36.7658 5.67804C36.7079 5.62786 36.6538 5.57768 36.5998 5.5275C36.5342 5.4696 36.4724 5.41556 36.4145 5.36538C36.3952 5.34994 36.3759 5.33064 36.3527 5.3152C36.3103 5.28046 36.2678 5.24186 36.2253 5.20712L36.1404 5.13764L36.0941 5.09904V5.09518L36.0593 5.06816L36.04 5.05272C35.9899 5.01026 35.9397 4.97166 35.8895 4.9292L35.8818 4.92148L35.8779 4.91762L35.8741 4.91376L35.8663 4.9099C35.8277 4.87902 35.793 4.84814 35.7544 4.82112L35.7505 4.81726H35.7467H35.7428C35.6231 4.72077 35.4996 4.62427 35.3761 4.53163L35.3722 4.52777L35.3684 4.52391C35.3336 4.49689 35.3027 4.47373 35.268 4.44671L35.2255 4.41583L35.2024 4.39653C35.1985 4.39267 35.1908 4.38881 35.1869 4.38495L35.1831 4.38109L35.1792 4.37723L35.1753 4.37337L35.1676 4.36951L35.0981 4.31933L35.0711 4.30003L34.9746 4.23055C34.963 4.22283 34.9553 4.21511 34.9437 4.20739C34.9244 4.19581 34.909 4.18037 34.8897 4.16879L34.8511 4.14177H34.8472H34.8433C34.8047 4.11475 34.77 4.08773 34.7314 4.06071C34.7237 4.05299 34.7121 4.04913 34.7044 4.04141L34.6928 4.03369L34.6851 4.02597C34.5924 3.96035 34.5036 3.89859 34.411 3.83297H34.4071H34.4033C34.3569 3.79437 34.3145 3.76735 34.272 3.73647C34.2604 3.72875 34.2527 3.72103 34.2411 3.71717L34.2373 3.71331C34.1755 3.67471 34.1137 3.63225 34.052 3.58979C34.0481 3.58593 34.0443 3.58593 34.0404 3.58207L34.0365 3.57821L34.0288 3.57435C34.0172 3.56663 34.0018 3.55891 33.9902 3.54733C33.9439 3.51645 33.9014 3.48943 33.8551 3.46241L33.8474 3.45855L33.8397 3.45469C33.774 3.41223 33.7045 3.36977 33.6389 3.32731L33.6312 3.32345L33.6235 3.31573C33.554 3.27327 33.4845 3.22695 33.415 3.18835L33.3031 3.12273C33.2838 3.10729 33.2683 3.09957 33.249 3.08799C33.2297 3.07641 33.2066 3.06097 33.1834 3.04939H33.1795L33.1757 3.04553C33.1641 3.03781 33.1487 3.03009 33.1371 3.02237C33.0869 2.99149 33.0367 2.96447 32.9865 2.93359L32.9479 2.91043C32.9286 2.89885 32.9132 2.89113 32.8977 2.87955C32.8514 2.85253 32.8051 2.82551 32.7588 2.79849C32.7549 2.79463 32.751 2.79463 32.7433 2.79077C32.4306 2.61707 32.1141 2.44723 31.7937 2.28897C31.786 2.28511 31.7782 2.28125 31.7705 2.27739H31.7667H31.7628H31.7589C31.6895 2.23879 31.62 2.20791 31.5466 2.17317L31.3575 2.08439C31.3536 2.08053 31.3459 2.08053 31.342 2.07667C31.3382 2.07667 31.3343 2.07281 31.3305 2.07281L31.3266 2.06895H31.3227C31.0988 1.96473 30.8942 1.87209 30.6974 1.78717L30.6896 1.78331L30.6858 1.77945H30.6819H30.6781C30.6317 1.75629 30.5815 1.73699 30.5352 1.71769L30.5159 1.70997L30.4966 1.70225V1.69839L30.4117 1.66365C30.3808 1.65207 30.3499 1.64049 30.319 1.62505C30.3036 1.61733 30.292 1.61347 30.2766 1.60961C30.0643 1.5247 29.8905 1.45522 29.7323 1.39732L29.6358 1.36258L29.6242 1.35872L29.5238 1.32012C29.2536 1.22362 28.9757 1.12712 28.6938 1.03834H28.69H28.6861C28.6823 1.03834 28.6784 1.03448 28.6707 1.03448C28.6166 1.01904 28.5626 0.999737 28.5086 0.984297C28.4545 0.968857 28.4005 0.949557 28.3426 0.934117C28.3117 0.922537 28.2769 0.914817 28.246 0.903237C28.1225 0.868497 28.0067 0.833757 27.8986 0.802877H27.8948H27.8909H27.887C27.8716 0.799017 27.8562 0.795157 27.8407 0.791297C27.8137 0.775858 27.7905 0.771998 27.7674 0.764278L27.7519 0.760418L27.7288 0.752698C27.4971 0.690938 27.2617 0.636898 27.0262 0.578998C26.8872 0.548118 26.7482 0.517238 26.6093 0.486358C26.3699 0.436179 26.1345 0.385999 25.8951 0.343539C25.8063 0.328099 25.7175 0.312659 25.6287 0.297219H25.6249H25.621H25.6172C25.5284 0.281779 25.4396 0.266339 25.3508 0.254759C25.3083 0.247039 25.2697 0.243179 25.2273 0.235459C25.1771 0.227739 25.123 0.220019 25.0729 0.212299C24.8181 0.177559 24.5633 0.14668 24.3085 0.11966C23.8144 0.0694798 23.3203 0.0347399 22.8223 0.01544C22.5521 0.00771998 22.278 0 22 0C21.5329 0 21.0697 0.01544 20.6026 0.0463199C20.5524 0.0501798 20.5061 0.0501798 20.4559 0.0540398C19.9425 0.0887797 19.4291 0.14282 18.9234 0.212299C18.8307 0.223879 18.7419 0.239319 18.6493 0.250899C18.6454 0.250899 18.6454 0.250899 18.6416 0.250899H18.6377L0.254827 18.636V18.6437Z" fill="#067BBA"/>
<path d="M43.7531 25.3292L43.7569 25.3138L43.7608 25.2945C43.7646 25.2636 43.7685 25.2327 43.7724 25.2018V25.1941V25.1825L43.7762 25.1709C43.784 25.1323 43.7878 25.0899 43.7955 25.0474L43.7994 25.0204L43.8033 24.9934C43.8071 24.9818 43.8071 24.9664 43.811 24.9548L43.8264 24.8158L43.838 24.7193C43.8496 24.6267 43.8612 24.5418 43.8689 24.4568V24.4453C43.8766 24.3642 43.8882 24.287 43.892 24.2098C43.8998 24.1442 43.9036 24.0824 43.9113 24.0245V24.0207L43.9191 23.9628C43.9229 23.9203 43.9268 23.8778 43.9306 23.8354V23.8199V23.8045C43.9384 23.7505 43.9384 23.6926 43.9422 23.6385V23.6308V23.6154C43.9499 23.5343 43.9538 23.4494 43.9615 23.3529V23.3452C43.9692 23.2603 43.9731 23.1753 43.977 23.0904V23.0673V23.0325V22.9978C43.9808 22.9283 43.9847 22.855 43.9847 22.7855C43.9885 22.689 43.9924 22.6002 43.9924 22.5076V22.496V22.4535C43.9924 22.3879 43.9963 22.3223 43.9963 22.2567V22.1833V22.1717C43.9963 22.1138 43.9963 22.0598 43.9963 22.0019C43.9963 21.944 43.9963 21.8822 43.9963 21.8243V21.8205V21.7626C43.9345 17.5783 42.2591 13.6566 39.2789 10.7153C36.2949 7.77012 32.3419 6.14893 28.1458 6.14893C27.1768 6.14893 26.2195 6.23385 25.2814 6.40754C27.4509 7.71994 29.3309 9.47624 30.8017 11.5876C32.9403 14.6525 34.0714 18.2538 34.0714 22.0019C34.0714 25.7499 32.9403 29.3513 30.8017 32.4161C28.7132 35.4076 25.818 37.685 22.4248 38.9974C20.3325 39.808 18.1205 40.221 15.8506 40.221C12.5385 40.221 9.35756 39.341 6.57812 37.6966L6.58198 37.7005L6.59357 37.712L6.60515 37.7236C6.61673 37.7391 6.63217 37.7506 6.64375 37.7622L6.68621 37.8047C6.72096 37.8394 6.7557 37.8742 6.7943 37.9089L6.80202 37.9166L6.80974 37.9243C6.86765 37.9822 6.93713 38.0479 7.00662 38.1096L7.0182 38.1173L7.02592 38.1251C7.07225 38.1675 7.11471 38.21 7.16103 38.2524L7.16489 38.2563L7.16875 38.2602C7.24982 38.3335 7.32703 38.4068 7.41196 38.4763L7.41582 38.4802L7.41968 38.484C7.47372 38.5304 7.52776 38.5805 7.58181 38.6269L7.59339 38.6346L7.62813 38.6655H7.63199L7.79027 38.8006L7.82115 38.8276L7.82887 38.8353C7.87133 38.87 7.9138 38.9048 7.95626 38.9395L7.9717 38.9511L7.98714 38.9665C8.02575 38.9974 8.06435 39.0322 8.11067 39.0669L8.12612 39.0785L8.14156 39.0901C8.1763 39.1171 8.20718 39.1441 8.23807 39.1711L8.24965 39.1788L8.25737 39.1866C8.37318 39.2831 8.49671 39.3757 8.62024 39.4683C8.64726 39.4915 8.67428 39.5108 8.7013 39.5301C8.73219 39.5533 8.76307 39.5764 8.79395 39.5996C8.81325 39.6112 8.82869 39.6227 8.84414 39.6382L8.87502 39.6613C8.9252 39.6999 8.97153 39.7347 9.02171 39.7733L9.06804 39.808C9.0912 39.8273 9.11822 39.8428 9.14138 39.8621L9.1491 39.8698L9.16068 39.8775C9.19543 39.9045 9.23403 39.9315 9.27263 39.9586L9.31124 39.9856C9.40002 40.0512 9.49267 40.113 9.58532 40.1786L9.59304 40.1824L9.60076 40.1902C9.63936 40.2172 9.68183 40.2442 9.72429 40.2712L9.75517 40.2905L9.85554 40.3561L9.96363 40.4295C10.0177 40.4642 10.0756 40.5028 10.1335 40.5376C10.1914 40.5762 10.2493 40.6109 10.3033 40.6456H10.4423L10.6932 40.885C10.7318 40.9081 10.7704 40.9313 10.809 40.9544C10.8862 41.0008 10.9635 41.0432 11.0407 41.0857L11.0484 41.0895L11.0561 41.0934C11.1179 41.1281 11.1758 41.1629 11.2375 41.1976C11.5618 41.3829 11.8899 41.5566 12.2219 41.7187C12.2953 41.7535 12.3686 41.792 12.4381 41.8268C12.4497 41.8345 12.4613 41.8384 12.469 41.8422C12.5385 41.8731 12.6041 41.9079 12.6736 41.9387C12.882 42.0352 13.0944 42.1317 13.299 42.2205H13.3028L13.3067 42.2244C13.3569 42.2475 13.4109 42.2707 13.4611 42.29C13.4765 42.2977 13.492 42.3016 13.5113 42.3131C13.5808 42.3402 13.6502 42.371 13.7197 42.3981C13.8896 42.4675 14.071 42.537 14.264 42.6104L14.2718 42.6142L14.2795 42.6181C14.3374 42.6413 14.3991 42.6644 14.4571 42.6837L14.4648 42.6876L14.4725 42.6914C14.7543 42.7956 15.0322 42.8883 15.2986 42.9732L15.3063 42.9771L15.314 42.9809C15.3681 43.0002 15.4221 43.0157 15.4762 43.035H15.4839L15.4916 43.0388C15.5727 43.0658 15.6538 43.089 15.7348 43.116L15.8043 43.1353C15.9008 43.1623 16.0012 43.1894 16.0977 43.2164C16.1517 43.2318 16.2019 43.2434 16.2482 43.2588L16.2598 43.2627C16.8659 43.4248 17.4835 43.5638 18.0896 43.6719L18.0973 43.6757H18.1051C18.1784 43.6873 18.2595 43.7027 18.356 43.7182H18.3637H18.3676C18.4641 43.7336 18.549 43.7491 18.6223 43.7568H18.6339L18.6455 43.7606C18.7304 43.7761 18.8154 43.7877 18.9041 43.7992H18.9119C19.9271 43.9382 20.9617 44.0115 21.9885 44.0115C23.0193 44.0115 24.0538 43.9382 25.0691 43.7992L25.0923 43.7954C25.1733 43.7838 25.2544 43.7722 25.3354 43.7606L25.347 43.7568H25.3548L43.7376 25.3755C43.7492 25.3485 43.7492 25.3408 43.7531 25.3292Z" fill="#C6CBD8"/>
</g>
<defs>
<clipPath id="clip0_801_9519">
<rect width="44" height="44" fill="white"/>
</clipPath>
</defs>
</svg>
